<?xml version="1.0"?>
<svg xmlns="http://www.w3.org/2000/svg" xmlns:xlink="http://www.w3.org/1999/xlink" xmlns:svgjs="http://svgjs.com/svgjs" version="1.1" width="512" height="512" x="0" y="0" viewBox="0 0 506.264 506.264" style="enable-background:new 0 0 512 512" xml:space="preserve" class=""><g><g xmlns="http://www.w3.org/2000/svg"><path d="m482.933 182.667c34.114-44.528 30.816-108.711-9.906-149.432-40.72-40.721-104.904-44.02-149.432-9.906l-16.198-16.198c-5.517-5.518-14.341-5.883-20.297-.843-161.672 136.827-151.646 128.191-152.898 129.672l-127.913 151.139c-5.041 5.956-4.674 14.78.843 20.297l16.198 16.198c-34.114 44.528-30.816 108.711 9.906 149.432 41.011 41.011 105.215 43.782 149.432 9.906l16.198 16.198c5.515 5.516 14.34 5.884 20.297.843l151.14-127.913c1.476-1.249-7.185 8.809 129.672-152.899 5.041-5.956 4.674-14.78-.843-20.297zm-428.484 269.147c-28.997-28.997-32.193-74.149-9.635-106.736l116.371 116.371c-32.588 22.558-77.739 19.362-106.736-9.635zm295.52-101.846-139.65 118.189-172.214-172.214 118.189-139.65 139.65-118.189 172.213 172.213zm111.481-188.785-116.371-116.371c32.587-22.558 77.739-19.362 106.736 9.635 28.997 28.998 32.193 74.149 9.635 106.736z" fill="#ffffff" data-original="#000000" style="" class=""/><path d="m294.732 96.103c-6.542-5.083-15.965-3.901-21.048 2.64-79.512 102.324-66.616 90.764-174.939 174.939-11.201 8.705-5.076 26.845 9.214 26.845 3.216 0 6.458-1.03 9.193-3.156 104.27-81.024 94.362-69.729 180.22-180.22 5.084-6.541 3.901-15.965-2.64-21.048z" fill="#ffffff" data-original="#000000" style="" class=""/><path d="m200.265 375.12c-6.561 5.058-7.78 14.477-2.722 21.038 5.031 6.528 14.446 7.803 21.038 2.722 109.684-84.551 99.683-75.72 180.301-180.301 5.058-6.561 3.839-15.98-2.722-21.038s-15.98-3.84-21.038 2.722c-83.013 107.687-72.948 96.299-174.857 174.857z" fill="#ffffff" data-original="#000000" style="" class=""/><path d="m149.504 324.401c-6.551 5.071-7.751 14.492-2.681 21.043 5.072 6.553 14.495 7.75 21.043 2.681 110.009-85.143 99.253-75.595 180.261-180.261 5.07-6.551 3.87-15.972-2.681-21.043-6.552-5.071-15.973-3.87-21.043 2.681-82.579 106.697-72.033 95.285-174.899 174.899z" fill="#ffffff" data-original="#000000" style="" class=""/></g></g></svg>
